<svg width="24" height="24" viewBox="0 0 24 24" fill="none" xmlns="http://www.w3.org/2000/svg">
<path d="M15.2797 8.54973C15.0051 8.27518 14.5599 8.27518 14.2853 8.54973C14.0108 8.82428 14.0108 9.2695 14.2853 9.54409L15.2797 10.5385C15.417 10.6757 15.5969 10.7444 15.7768 10.7444C15.9567 10.7444 16.1367 10.6757 16.274 10.5385L18.2627 8.54973C18.5373 8.27518 18.5373 7.82997 18.2627 7.55537C17.9882 7.28073 17.543 7.28082 17.2683 7.55537L15.7769 9.04689L15.2797 8.54973Z" fill="#EB9605"/>
<path d="M17.2684 11.1178L15.7769 12.6094L15.2797 12.1122C15.0051 11.8377 14.5599 11.8377 14.2853 12.1122C14.0108 12.3868 14.0108 12.832 14.2853 13.1066L15.2797 14.1009C15.417 14.2382 15.5969 14.3069 15.7768 14.3069C15.9567 14.3069 16.1367 14.2382 16.274 14.1009L18.2627 12.1122C18.5373 11.8377 18.5373 11.3924 18.2627 11.1178C17.9882 10.8432 17.543 10.8433 17.2684 11.1178V11.1178Z" fill="#EB9605"/>
<path d="M12.1406 8.34375H6.51562C6.12731 8.34375 5.8125 8.65856 5.8125 9.04688C5.8125 9.43519 6.12731 9.75 6.51562 9.75H12.1406C12.5289 9.75 12.8438 9.43519 12.8438 9.04688C12.8438 8.65856 12.5289 8.34375 12.1406 8.34375Z" fill="#EB9605"/>
<path d="M12.1406 11.9062H6.51562C6.12731 11.9062 5.8125 12.2211 5.8125 12.6094C5.8125 12.9977 6.12731 13.3125 6.51562 13.3125H12.1406C12.5289 13.3125 12.8438 12.9977 12.8438 12.6094C12.8438 12.2211 12.5289 11.9062 12.1406 11.9062Z" fill="#EB9605"/>
<path d="M12.1406 15.4688H6.51562C6.12731 15.4688 5.8125 15.7836 5.8125 16.1719C5.8125 16.5602 6.12731 16.875 6.51562 16.875H12.1406C12.5289 16.875 12.8438 16.5602 12.8438 16.1719C12.8438 15.7836 12.5289 15.4688 12.1406 15.4688Z" fill="#EB9605"/>
<path d="M12.1406 19.0312H6.51562C6.12731 19.0312 5.8125 19.3461 5.8125 19.7344C5.8125 20.1227 6.12731 20.4375 6.51562 20.4375H12.1406C12.5289 20.4375 12.8438 20.1227 12.8438 19.7344C12.8438 19.3461 12.5289 19.0312 12.1406 19.0312Z" fill="#EB9605"/>
<path d="M20.5781 2.8125H16.5795C16.3145 2.25038 15.7462 1.875 15.0965 1.875H14.4474L14.6978 0.873656C14.7503 0.663656 14.7031 0.441047 14.5699 0.270422C14.4366 0.09975 14.2321 0 14.0156 0H10.2656C10.0491 0 9.84469 0.09975 9.71142 0.270422C9.5782 0.441094 9.531 0.663656 9.5835 0.873656L9.83386 1.875H9.18483C8.53514 1.875 7.96683 2.25038 7.70184 2.8125H3.70312C3.31481 2.8125 3 3.12731 3 3.51562V23.2969C3 23.6852 3.31481 24 3.70312 24H20.5781C20.9664 24 21.2812 23.6852 21.2812 23.2969V3.51562C21.2812 3.12731 20.9664 2.8125 20.5781 2.8125ZM9.18478 3.28125H10.7344C10.9509 3.28125 11.1553 3.1815 11.2886 3.01083C11.4218 2.84016 11.469 2.61759 11.4165 2.40759L11.1661 1.40625H13.1151L12.8647 2.40759C12.8122 2.61759 12.8594 2.8402 12.9926 3.01083C13.1259 3.1815 13.3304 3.28125 13.5469 3.28125H15.0965C15.2115 3.28125 15.3087 3.36361 15.3277 3.47709L15.5294 4.6875H8.75189L8.95364 3.47709C8.97253 3.36361 9.06975 3.28125 9.18478 3.28125ZM19.875 22.5938H4.40625V4.21875H7.40438L7.22831 5.27503C7.19433 5.47889 7.25175 5.68739 7.38539 5.84508C7.51903 6.00277 7.7152 6.09375 7.92188 6.09375H16.3594C16.566 6.09375 16.7623 6.00281 16.8959 5.84508C17.0295 5.68734 17.0869 5.47884 17.0529 5.27503L16.8769 4.21875H19.875V22.5938Z" fill="#EB9605"/>
</svg>
