<svg width="24" height="24" viewBox="0 0 24 24" fill="none" xmlns="http://www.w3.org/2000/svg">
<path d="M4.87499 10.125C2.92499 8.17502 2.92499 5.10002 4.87499 3.15002L13.2 11.475L15.975 14.25L20.25 18.525C21 19.275 21 20.4 20.25 21.15C19.5 21.9 18.15 21.9 17.475 21L14.4 17.175C13.65 16.2 12.3 15.9 11.1 16.35L4.87499 10.125Z" stroke="#EB9605" stroke-width="2" stroke-miterlimit="10" stroke-linecap="round" stroke-linejoin="round"/>
<path d="M15.975 9.07502L20.025 5.02502" stroke="#EB9605" stroke-width="2" stroke-miterlimit="10" stroke-linecap="round" stroke-linejoin="round"/>
<path d="M14.325 12.6C14.625 12.525 14.85 12.525 15.15 12.45C16.125 12.375 17.25 11.85 18.375 10.725L22.05 7.04999" stroke="#EB9605" stroke-width="2" stroke-miterlimit="10" stroke-linecap="round" stroke-linejoin="round"/>
<path d="M9.22502 14.475L3.97502 18.75C3.15002 19.35 3.07502 20.55 3.82502 21.225C4.57502 21.975 5.70002 21.825 6.30002 21.075L10.575 15.75" stroke="#EB9605" stroke-width="2" stroke-miterlimit="10" stroke-linecap="round" stroke-linejoin="round"/>
<path d="M18 3L14.25 6.675C13.125 7.8 12.525 8.925 12.525 9.9C12.525 10.2 12.45 10.425 12.375 10.725" stroke="#EB9605" stroke-width="2" stroke-miterlimit="10" stroke-linecap="round" stroke-linejoin="round"/>
</svg>
