<svg width="167" height="45" viewBox="0 0 167 45" fill="none" xmlns="http://www.w3.org/2000/svg">
<path d="M49.7227 27.6172L49.7402 27.1074C49.8691 23.6035 50.7539 20.293 52.3945 17.1758C53.9062 14.3281 55.8105 12.0254 58.1074 10.2676C60.3809 8.5332 62.5957 7.66602 64.752 7.66602C66.3926 7.66602 67.6875 8.23437 68.6367 9.37109C69.4453 10.3555 69.8496 11.5625 69.8496 12.9922C69.8496 14.7031 69.2227 16.3906 67.9688 18.0547C67.2422 19.0156 66.4688 19.707 65.6484 20.1289C65.2617 20.3398 64.8984 20.4453 64.5586 20.4453C64.2305 20.4453 63.9258 20.375 63.6445 20.2344C63.3633 20.0938 63.1172 19.918 62.9062 19.707C62.4727 19.25 62.2559 18.8398 62.2559 18.4766C62.2559 18.1133 62.3496 17.8613 62.5371 17.7207C64.459 16.3379 65.7656 14.9141 66.457 13.4492C66.7266 12.8867 66.8613 12.3359 66.8613 11.7969C66.8613 10.6602 66.3223 10.0918 65.2441 10.0918C63.5566 10.0918 61.8164 11.0117 60.0234 12.8516C58.3477 14.5508 56.9414 16.6836 55.8047 19.25C54.6211 21.8867 53.9941 24.3066 53.9238 26.5098L53.9062 27.1777C53.9062 29.8145 54.4629 31.543 55.5762 32.3633C55.9746 32.6562 56.4492 32.8027 57 32.8027C57.5625 32.8027 58.0898 32.7324 58.582 32.5918C59.0742 32.4512 59.5664 32.2578 60.0586 32.0117C60.8555 31.6016 61.875 30.8926 63.1172 29.8848C63.4922 29.5918 63.8027 29.6328 64.0488 30.0078C64.2598 30.3125 64.3652 30.6641 64.3652 31.0625C64.3652 31.7305 64.2715 32.1875 64.084 32.4336C63.9082 32.668 63.5977 32.9492 63.1523 33.2773C62.7188 33.6055 62.1855 33.9102 61.5527 34.1914C60.0762 34.8477 58.6289 35.1758 57.2109 35.1758C55.793 35.1758 54.6504 35.0059 53.7832 34.666C52.916 34.3145 52.1836 33.8164 51.5859 33.1719C50.3438 31.8125 49.7227 29.9609 49.7227 27.6172ZM70.1309 33.8047C69.6387 33.3359 69.252 32.7441 68.9707 32.0293C68.6895 31.3027 68.543 30.4473 68.5312 29.4629C68.5195 28.4785 68.6367 27.4824 68.8828 26.4746C69.1406 25.4668 69.498 24.4941 69.9551 23.5566C70.4238 22.6191 70.9805 21.7402 71.625 20.9199C72.2812 20.0996 73.002 19.3848 73.7871 18.7754C75.498 17.4629 77.2734 16.8066 79.1133 16.8066C81.5273 16.8066 83.1621 17.8672 84.0176 19.9883C84.627 21.5234 84.6621 23.3809 84.123 25.5605C83.6309 27.5645 82.7285 29.4043 81.416 31.0801C80.1152 32.7559 78.5801 33.9453 76.8105 34.6484C75.9199 35 75.041 35.1758 74.1738 35.1758C73.3184 35.1758 72.5508 35.0645 71.8711 34.8418C71.2031 34.6191 70.623 34.2734 70.1309 33.8047ZM73.4883 25.2793C73.1367 26.1465 72.8555 27.0371 72.6445 27.9512C72.4453 28.8652 72.3516 29.7324 72.3633 30.5527C72.375 31.3613 72.498 32 72.7324 32.4688C72.9785 32.9258 73.3711 33.1543 73.9102 33.1543C74.4492 33.1543 74.9766 32.9727 75.4922 32.6094C76.0195 32.2344 76.5293 31.7422 77.0215 31.1328C77.5137 30.5234 77.9766 29.8203 78.4102 29.0234C78.8438 28.2266 79.2246 27.3945 79.5527 26.5273C80.2676 24.6406 80.6133 22.9648 80.5898 21.5C80.5898 20.2109 80.3262 19.3906 79.7988 19.0391C79.5879 18.8984 79.2891 18.8281 78.9023 18.8281C78.5273 18.8281 78.0938 19.0039 77.6016 19.3555C77.1094 19.6953 76.6172 20.1582 76.125 20.7441C75.6328 21.3301 75.1582 22.0156 74.7012 22.8008C74.2441 23.5859 73.8398 24.4121 73.4883 25.2793ZM88.6582 33.8047C88.166 33.3359 87.7793 32.7441 87.498 32.0293C87.2168 31.3027 87.0703 30.4473 87.0586 29.4629C87.0469 28.4785 87.1641 27.4824 87.4102 26.4746C87.668 25.4668 88.0254 24.4941 88.4824 23.5566C88.9512 22.6191 89.5078 21.7402 90.1523 20.9199C90.8086 20.0996 91.5293 19.3848 92.3145 18.7754C94.0254 17.4629 95.8008 16.8066 97.6406 16.8066C100.055 16.8066 101.689 17.8672 102.545 19.9883C103.154 21.5234 103.189 23.3809 102.65 25.5605C102.158 27.5645 101.256 29.4043 99.9434 31.0801C98.6426 32.7559 97.1074 33.9453 95.3379 34.6484C94.4473 35 93.5684 35.1758 92.7012 35.1758C91.8457 35.1758 91.0781 35.0645 90.3984 34.8418C89.7305 34.6191 89.1504 34.2734 88.6582 33.8047ZM92.0156 25.2793C91.6641 26.1465 91.3828 27.0371 91.1719 27.9512C90.9727 28.8652 90.8789 29.7324 90.8906 30.5527C90.9023 31.3613 91.0254 32 91.2598 32.4688C91.5059 32.9258 91.8984 33.1543 92.4375 33.1543C92.9766 33.1543 93.5039 32.9727 94.0195 32.6094C94.5469 32.2344 95.0566 31.7422 95.5488 31.1328C96.041 30.5234 96.5039 29.8203 96.9375 29.0234C97.3711 28.2266 97.752 27.3945 98.0801 26.5273C98.7949 24.6406 99.1406 22.9648 99.1172 21.5C99.1172 20.2109 98.8535 19.3906 98.3262 19.0391C98.1152 18.8984 97.8164 18.8281 97.4297 18.8281C97.0547 18.8281 96.6211 19.0039 96.1289 19.3555C95.6367 19.6953 95.1445 20.1582 94.6523 20.7441C94.1602 21.3301 93.6855 22.0156 93.2285 22.8008C92.7715 23.5859 92.3672 24.4121 92.0156 25.2793ZM117.188 35.1582C114.527 35.1582 112.406 32.6328 110.824 27.582C110.203 28.7305 109.688 29.7734 109.277 30.7109L108.223 33.1016C107.918 33.7578 107.631 34.2676 107.361 34.6309C107.104 34.9941 106.811 35.1758 106.482 35.1758C106.154 35.1758 105.855 35.1172 105.586 35C105.316 34.8945 105.082 34.7539 104.883 34.5781C104.473 34.2031 104.268 33.793 104.268 33.3477C104.268 33.1719 104.391 32.8262 104.637 32.3105L105.34 30.8867C107.531 26.375 109.518 20.6562 111.299 13.7305C111.955 11.1758 112.43 8.87891 112.723 6.83984C112.852 5.85547 113.332 5.36328 114.164 5.36328C114.656 5.36328 115.066 5.49219 115.395 5.75C116.027 6.25391 116.332 6.79883 116.309 7.38477C116.285 7.95898 116.203 8.60938 116.062 9.33594C115.934 10.0625 115.758 10.8594 115.535 11.7266C115.312 12.582 115.061 13.4785 114.779 14.416C114.018 16.8652 113.449 18.6113 113.074 19.6543L111.422 24.207C111.211 24.7461 111.047 25.1387 110.93 25.3848C113.648 24.3066 115.688 23.0879 117.047 21.7285C117.867 20.9082 118.277 20.1406 118.277 19.4258C118.277 19.0625 118.154 18.7988 117.908 18.6348C117.674 18.4707 117.51 18.3477 117.416 18.2656C117.334 18.1719 117.328 18.0137 117.398 17.791C117.48 17.5566 117.703 17.334 118.066 17.123C118.43 16.9121 118.869 16.8066 119.385 16.8066C119.9 16.8066 120.328 16.8535 120.668 16.9473C121.02 17.041 121.324 17.1875 121.582 17.3867C122.156 17.7969 122.443 18.377 122.443 19.127C122.443 19.877 122.285 20.5684 121.969 21.2012C121.652 21.8223 121.16 22.4258 120.492 23.0117C119.168 24.1367 117.047 25.2266 114.129 26.2812C114.492 27.8398 115.16 29.2109 116.133 30.3945C117.059 31.5195 117.908 32.082 118.682 32.082C119.092 32.082 119.443 32.0117 119.736 31.8711L120.369 31.5547C120.498 31.4844 120.621 31.4492 120.738 31.4492C121.031 31.4492 121.178 31.625 121.178 31.9766C121.178 32.2812 121.125 32.5508 121.02 32.7852C120.914 33.0078 120.762 33.248 120.562 33.5059C120.375 33.7637 120.129 34.0156 119.824 34.2617C119.062 34.8594 118.184 35.1582 117.188 35.1582ZM132.973 12.6934C132.715 12.9629 132.422 13.1855 132.094 13.3613C131.766 13.5254 131.42 13.6309 131.057 13.6777C130.693 13.7129 130.348 13.6543 130.02 13.502C129.703 13.3496 129.428 13.1328 129.193 12.8516C128.689 12.2656 128.438 11.6738 128.438 11.0762C128.438 10.4785 128.531 10.0332 128.719 9.74023C128.918 9.43555 129.164 9.18945 129.457 9.00195C130.02 8.63867 130.547 8.45703 131.039 8.45703C131.543 8.45703 131.93 8.49219 132.199 8.5625C132.48 8.63281 132.738 8.75 132.973 8.91406C133.547 9.30078 133.834 9.77539 133.834 10.3379C133.834 10.8887 133.752 11.3516 133.588 11.7266C133.436 12.0898 133.23 12.4121 132.973 12.6934ZM129.369 31.7129C129.674 31.7129 129.826 31.9121 129.826 32.3105C129.826 32.8379 129.586 33.3828 129.105 33.9453C128.402 34.7656 127.459 35.1758 126.275 35.1758C124.916 35.1758 123.984 34.625 123.48 33.5234C123.293 33.1367 123.199 32.668 123.199 32.1172C123.199 31.5664 123.293 30.957 123.48 30.2891C123.68 29.6094 123.92 28.9004 124.201 28.1621C124.494 27.4121 124.811 26.6562 125.15 25.8945L126.082 23.6797C126.762 22.0273 127.102 20.9375 127.102 20.4102C127.102 19.8828 127.043 19.5371 126.926 19.373C126.82 19.1973 126.703 19.0625 126.574 18.9688L126.223 18.7227C126.105 18.6406 126.047 18.5 126.047 18.3008C126.047 18.0898 126.123 17.8906 126.275 17.7031C126.439 17.5156 126.65 17.3516 126.908 17.2109C127.436 16.9414 128.051 16.8066 128.754 16.8066C130.477 16.8066 131.338 17.2578 131.338 18.1602C131.338 19.2148 131.062 20.4219 130.512 21.7812C129.961 23.1289 129.492 24.2188 129.105 25.0508L128.051 27.4766C127.277 29.2578 126.891 30.541 126.891 31.3262C126.891 31.8418 127.148 32.0996 127.664 32.0996C128.168 32.0996 128.549 32.0352 128.807 31.9062C129.064 31.7773 129.252 31.7129 129.369 31.7129ZM131.795 38.8672C131.795 38.6211 131.982 38.1289 132.357 37.3906C132.721 36.6641 133.119 35.7324 133.553 34.5957C133.998 33.459 134.42 32.2754 134.818 31.0449C135.217 29.8145 135.621 28.4961 136.031 27.0898L137.402 22.4492L135.574 22.9414C135.117 22.9414 134.742 22.7012 134.449 22.2207C134.379 22.0918 134.344 21.9395 134.344 21.7637C134.344 21.5879 134.484 21.3828 134.766 21.1484C135.047 20.9023 135.393 20.6738 135.803 20.4629C136.623 20.041 137.467 19.7188 138.334 19.4961L138.492 19.0039C138.809 18.0195 139.107 17 139.389 15.9453C139.682 14.8789 139.986 13.8418 140.303 12.834C140.631 11.8262 141 10.8711 141.41 9.96875C141.82 9.05469 142.301 8.25781 142.852 7.57812C144.07 6.10156 145.6 5.36328 147.439 5.36328C148.799 5.36328 149.877 5.72656 150.674 6.45312C151.471 7.17969 151.869 8.16406 151.869 9.40625C151.869 10.6953 151.5 11.8145 150.762 12.7637C150.141 13.5488 149.449 13.9414 148.688 13.9414C147.738 13.9414 147.094 13.5078 146.754 12.6406C146.66 12.418 146.613 12.2305 146.613 12.0781C146.613 11.8203 146.789 11.5859 147.141 11.375C147.785 10.8828 148.236 10.2266 148.494 9.40625C148.576 9.14844 148.617 8.89648 148.617 8.65039C148.617 7.68945 148.242 7.20898 147.492 7.20898C146.461 7.20898 145.512 8.375 144.645 10.707C144.387 11.4219 144.129 12.207 143.871 13.0625L142.219 18.6699C143.285 18.5059 144.059 18.4238 144.539 18.4238C145.031 18.4238 145.465 18.4824 145.84 18.5996C146.215 18.7051 146.555 18.8574 146.859 19.0566C147.551 19.5137 147.896 20.0762 147.896 20.7441C147.896 21.4121 147.568 21.7461 146.912 21.7461L144.68 21.6582C143.461 21.6582 142.336 21.7109 141.305 21.8164L139.863 26.9141C138.914 30.3711 138.141 32.8848 137.543 34.4551C136.957 36.0254 136.383 37.3555 135.82 38.4453C135.293 39.4414 134.49 39.9395 133.412 39.9395C132.334 39.9395 131.795 39.582 131.795 38.8672ZM147.914 33.2949C147.773 32.9082 147.703 32.4688 147.703 31.9766C147.703 31.4727 147.785 30.916 147.949 30.3066C148.125 29.6855 148.348 29.041 148.617 28.373C148.887 27.7051 149.18 27.0195 149.496 26.3164L150.445 24.207C151.664 21.5 152.115 19.8945 151.799 19.3906C151.658 19.168 151.395 18.9453 151.008 18.7227C150.867 18.6406 150.797 18.5 150.797 18.3008C150.797 18.0898 150.879 17.8906 151.043 17.7031C151.219 17.5156 151.441 17.3516 151.711 17.2109C152.285 16.9414 152.859 16.8066 153.434 16.8066C154.008 16.8066 154.441 16.8711 154.734 17C155.039 17.1172 155.285 17.2695 155.473 17.457C155.859 17.8438 156.053 18.2715 156.053 18.7402C156.053 19.209 155.977 19.7363 155.824 20.3223C155.672 20.8965 155.473 21.5234 155.227 22.2031C154.98 22.8828 154.711 23.5859 154.418 24.3125C153.609 26.2109 153.064 27.4648 152.783 28.0742L152.133 29.4277C151.77 30.2363 151.588 30.8047 151.588 31.1328C151.588 31.4609 151.641 31.6953 151.746 31.8359C151.852 31.9648 152.039 32.0293 152.309 32.0293C152.59 32.0293 152.895 31.9238 153.223 31.7129C153.562 31.502 153.926 31.2207 154.312 30.8691C154.699 30.5176 155.098 30.1133 155.508 29.6562C155.93 29.1875 156.34 28.7012 156.738 28.1973C157.781 26.9082 158.555 25.8008 159.059 24.875C161.59 20.2109 162.932 17.7734 163.084 17.5625C163.471 17.0586 163.857 16.8066 164.244 16.8066C164.643 16.8066 164.988 16.8535 165.281 16.9473C165.574 17.0293 165.826 17.1523 166.037 17.3164C166.506 17.6562 166.646 18.0371 166.459 18.459C166.283 18.8809 166.066 19.4609 165.809 20.1992C163.582 26.6562 162.135 30.6816 161.467 32.2754C160.811 33.8691 160.236 35.1465 159.744 36.1074C159.252 37.0801 158.672 38.0586 158.004 39.043C157.348 40.0273 156.645 40.9238 155.895 41.7324C154.184 43.5605 152.578 44.5391 151.078 44.668C150.504 44.7148 150.047 44.6328 149.707 44.4219C149.121 44.0703 148.828 43.7363 148.828 43.4199C148.828 43.1035 149.092 42.8809 149.619 42.752C150.158 42.6348 150.709 42.3887 151.271 42.0137C151.846 41.6504 152.396 41.2227 152.924 40.7305C154.471 39.2539 155.672 37.6484 156.527 35.9141C157.254 34.3906 157.84 32.9492 158.285 31.5898L159.656 27.4062C159.316 27.8164 158.941 28.2969 158.531 28.8477L157.266 30.5352C156.164 31.9297 155.25 32.9199 154.523 33.5059C153.141 34.6191 151.904 35.1758 150.814 35.1758C149.361 35.1758 148.395 34.5488 147.914 33.2949Z" fill="#EB9605"/>
<path d="M29.4 10.6313C29.7937 10.5 30.3187 10.5 30.8438 10.5C34.7812 10.5 38.0625 13.7812 38.0625 17.7188C38.0625 21.6562 34.7812 24.9375 30.8438 24.9375L31.5 36.75H10.5L11.1562 24.9375C7.21875 24.9375 3.9375 21.6562 3.9375 17.7188C3.9375 13.7812 7.21875 10.5 11.1562 10.5C11.6813 10.5 12.2063 10.5 12.6 10.6313" stroke="#EB9605" stroke-width="2" stroke-miterlimit="10" stroke-linecap="round" stroke-linejoin="round"/>
<path d="M30.1875 14.4375C30.1875 9.31875 26.1188 5.25 21 5.25C15.8812 5.25 11.8125 9.31875 11.8125 14.4375" stroke="#EB9605" stroke-width="2" stroke-miterlimit="10" stroke-linecap="round" stroke-linejoin="round"/>
<path d="M21 27.5625V31.5" stroke="#EB9605" stroke-width="2" stroke-miterlimit="10" stroke-linecap="round" stroke-linejoin="round"/>
<path d="M16.4062 27.5625L15.75 31.1063" stroke="#EB9605" stroke-width="2" stroke-miterlimit="10" stroke-linecap="round" stroke-linejoin="round"/>
<path d="M25.5938 27.5625L26.25 31.1063" stroke="#EB9605" stroke-width="2" stroke-miterlimit="10" stroke-linecap="round" stroke-linejoin="round"/>
</svg>
