<svg width="167" height="45" viewBox="0 0 167 45" fill="none" xmlns="http://www.w3.org/2000/svg">
<path d="M61.1133 31.0098C61.1133 29.4277 61.5645 27.002 62.4668 23.7324C59.6426 23.8027 57.4805 23.8848 55.9805 23.9785C55.5234 24.8105 55.1074 25.6016 54.7324 26.3516L53.6426 28.5137C52.2012 31.3496 50.9062 33.2188 49.7578 34.1211C48.8789 34.8242 47.9473 35.1758 46.9629 35.1758C46.2129 35.1758 45.6445 34.9297 45.2578 34.4375C45.1172 34.2383 45.0352 34.0508 45.0117 33.875C44.9883 33.6875 45.0293 33.5645 45.1348 33.5059C46.4824 33.002 47.5781 32.2344 48.4219 31.2031C49.1602 30.2773 49.8984 29.1465 50.6367 27.8105L52.623 24.2598L51.5156 24.418C50.8125 24.5469 50.4609 24.4355 50.4609 24.084C50.4609 23.7324 50.6719 23.3984 51.0938 23.082C51.832 22.5312 52.5527 22.168 53.2559 21.9922L54.0117 21.8164C55.9336 18.6406 57.3984 16.4199 58.4062 15.1543C59.4258 13.8887 60.3516 12.834 61.1836 11.9902C62.0273 11.1465 62.9121 10.4023 63.8379 9.75781C65.8652 8.36328 67.8633 7.66602 69.832 7.66602C70.4297 7.66602 70.834 7.78906 71.0449 8.03516C71.3965 8.42188 71.5078 8.83789 71.3789 9.2832C71.25 9.7168 71.0391 10.3437 70.7461 11.1641C68.8711 16.2734 67.7285 19.4375 67.3184 20.6562C67.5059 20.6445 67.6758 20.6387 67.8281 20.6387H68.2148C69.5273 20.6387 70.2305 20.7676 70.3242 21.0254C70.3477 21.1074 70.3594 21.2598 70.3594 21.4824C70.3594 21.6934 70.2891 21.9395 70.1484 22.2207C70.0195 22.502 69.8027 22.7422 69.498 22.9414C68.877 23.3633 67.834 23.6094 66.3691 23.6797C65.5723 26.4336 65.1152 28.3379 64.998 29.3926C64.8926 30.4473 64.9277 31.1621 65.1035 31.5371C65.291 31.9004 65.5488 32.082 65.877 32.082C66.2168 32.082 66.4922 32.0527 66.7031 31.9941C66.9141 31.9238 67.1016 31.8477 67.2656 31.7656L67.7227 31.5547C67.8398 31.4844 67.957 31.4492 68.0742 31.4492C68.2031 31.4492 68.3086 31.5312 68.3906 31.6953C68.4727 31.8477 68.5137 32.0527 68.5137 32.3105C68.5137 32.5684 68.4023 32.8789 68.1797 33.2422C67.9688 33.5938 67.6875 33.9102 67.3359 34.1914C66.5156 34.8477 65.5898 35.1758 64.5586 35.1758C62.9766 35.1758 61.9219 34.4727 61.3945 33.0664C61.207 32.5742 61.1133 32.1348 61.1133 31.748V31.0098ZM57.5977 21.2012C59.6836 20.9316 61.6172 20.7734 63.3984 20.7266C63.7266 19.7188 64.0781 18.7227 64.4531 17.7383L65.543 14.9258C65.918 14.0352 66.2871 13.1914 66.6504 12.3945L67.6699 10.2324C65.2324 10.8652 62.8242 12.9688 60.4453 16.543C59.9414 17.293 59.4492 18.0664 58.9688 18.8633L57.5977 21.2012ZM89.0098 31.4492C89.2559 31.4492 89.3789 31.5781 89.3789 31.8359C89.3789 32.8438 88.8574 33.7109 87.8145 34.4375C87.123 34.9297 86.4668 35.1758 85.8457 35.1758C85.2363 35.1758 84.75 35.1055 84.3867 34.9648C84.0234 34.8242 83.6953 34.6016 83.4023 34.2969C82.7461 33.5938 82.418 32.627 82.418 31.3965C82.418 31.1504 82.4648 30.7578 82.5586 30.2188C81.6094 31.6836 80.7949 32.7148 80.1152 33.3125C78.7441 34.5547 77.4023 35.1758 76.0898 35.1758C74.0156 35.1758 72.6562 34.2383 72.0117 32.3633C71.7773 31.6719 71.6602 30.8047 71.6602 29.7617C71.6602 28.7188 71.8184 27.6641 72.1348 26.5977C72.4512 25.5312 72.8789 24.5176 73.418 23.5566C73.9688 22.5957 74.6016 21.7051 75.3164 20.8848C76.043 20.0527 76.8047 19.332 77.6016 18.7227C79.3125 17.4453 80.8594 16.8066 82.2422 16.8066C83.625 16.8066 84.7324 17.3691 85.5645 18.4941C87.6035 11.5098 89.1387 7.39062 90.1699 6.13672C90.6035 5.62109 91.0605 5.36328 91.541 5.36328C92.3379 5.36328 92.9414 5.5918 93.3516 6.04883C93.4805 6.20117 93.5449 6.35352 93.5449 6.50586C93.5449 6.6582 93.4512 6.93945 93.2637 7.34961C93.0762 7.75977 92.8008 8.42188 92.4375 9.33594C91.3945 12.0898 90.6621 14.1055 90.2402 15.3828C89.1621 18.6523 88.4355 20.9023 88.0605 22.1328L87.0938 25.3848C86.2617 28.2793 85.8457 30.1191 85.8457 30.9043C85.8457 31.6895 86.1328 32.082 86.707 32.082C87.2344 32.082 87.6562 32.0117 87.9727 31.8711L88.6406 31.5547C88.7695 31.4844 88.8926 31.4492 89.0098 31.4492ZM76.9336 32.5391C78.1406 32.5391 79.5234 31.3613 81.082 29.0059C82.7109 26.5684 83.8477 23.9141 84.4922 21.043C84.4453 20.2461 84.1113 19.6602 83.4902 19.2852C83.2793 19.1562 82.957 19.0918 82.5234 19.0918C82.1016 19.0918 81.6035 19.25 81.0293 19.5664C80.4668 19.8711 79.916 20.2871 79.377 20.8145C78.8496 21.3418 78.3516 21.9629 77.8828 22.6777C77.4258 23.3809 77.0273 24.1309 76.6875 24.9277C75.9492 26.6621 75.5801 28.3672 75.5801 30.043C75.5801 31.707 76.0312 32.5391 76.9336 32.5391ZM104.777 20.1289C104.098 20.1289 102.855 21.1133 101.051 23.082C99.7031 24.6172 98.7246 25.7715 98.1152 26.5449L96.5332 28.5488C95.8535 29.8379 95.3203 30.9102 94.9336 31.7656L93.9844 33.8047C93.7383 34.3086 93.5215 34.666 93.334 34.877C93.1582 35.0762 92.9121 35.1758 92.5957 35.1758C92.291 35.1758 91.9922 35.1172 91.6992 35C91.418 34.8945 91.1719 34.7539 90.9609 34.5781C90.5156 34.2031 90.293 33.793 90.293 33.3477C90.293 33.1719 90.4219 32.8262 90.6797 32.3105L91.3477 30.8867C91.5586 30.4648 91.8047 29.9258 92.0859 29.2695L93.0703 26.8613C94.4531 23.4043 95.1445 21.1719 95.1445 20.1641C95.1445 19.625 94.9688 19.2266 94.6172 18.9688L94.2656 18.7227C94.1484 18.6406 94.0898 18.5 94.0898 18.3008C94.0898 18.0898 94.166 17.8906 94.3184 17.7031C94.4824 17.5156 94.6934 17.3516 94.9512 17.2109C95.4785 16.9414 96.0059 16.8066 96.5332 16.8066C97.0723 16.8066 97.4941 16.8652 97.7988 16.9824C98.1035 17.0996 98.3672 17.2578 98.5898 17.457C99.0352 17.8672 99.2578 18.2949 99.2578 18.7402C99.2578 19.1855 99.1992 19.6367 99.082 20.0938C98.9648 20.5391 98.8184 20.9961 98.6426 21.4648C98.4668 21.9219 98.2793 22.3672 98.0801 22.8008C97.6113 23.8086 97.3184 24.4297 97.2012 24.6641C97.0957 24.8867 97.0664 24.9688 97.1133 24.9102C99.2578 22.1328 100.547 20.4922 100.98 19.9883C101.883 18.9453 102.586 18.2305 103.09 17.8438C104.016 17.1523 104.889 16.8066 105.709 16.8066C106.541 16.8066 107.203 17.0645 107.695 17.5801C108.188 18.0957 108.434 18.7754 108.434 19.6191C108.434 20.3574 108.246 21.2246 107.871 22.2207C107.496 23.2168 107.244 23.9141 107.115 24.3125L109.699 20.9023L111.141 19.1797C112.008 18.207 112.77 17.5684 113.426 17.2637C114.082 16.959 114.615 16.8066 115.025 16.8066C115.447 16.8066 115.857 16.8828 116.256 17.0352C116.666 17.1875 117.012 17.4043 117.293 17.6855C117.891 18.2598 118.189 19.0215 118.189 19.9707C118.189 20.8848 117.979 21.8223 117.557 22.7832C117.135 23.7441 116.766 24.5352 116.449 25.1562C116.133 25.7656 115.828 26.3809 115.535 27.002C114.68 28.8652 114.252 30.248 114.252 31.1504C114.252 31.7832 114.51 32.0996 115.025 32.0996C115.518 32.0996 115.963 31.9941 116.361 31.7832C116.771 31.5723 117.035 31.4668 117.152 31.4668C117.398 31.4668 117.521 31.5898 117.521 31.8359C117.521 32.8789 116.988 33.752 115.922 34.4551C115.207 34.9355 114.551 35.1758 113.953 35.1758C113.367 35.1758 112.893 35.1055 112.529 34.9648C112.166 34.8242 111.838 34.6016 111.545 34.2969C110.889 33.6172 110.561 32.7676 110.561 31.748C110.561 30.7285 110.689 29.791 110.947 28.9355C111.205 28.0801 111.51 27.2539 111.861 26.457C112.213 25.6484 112.564 24.9102 112.916 24.2422C113.279 23.5625 113.555 23.0234 113.742 22.625C114.117 21.8047 114.305 21.2012 114.305 20.8145C114.305 20.3574 114.064 20.1289 113.584 20.1289C112.951 20.1289 111.814 21.1777 110.174 23.2754C108.932 24.9043 108.07 26.0762 107.59 26.791L106.377 28.5488C105.697 29.8379 105.176 30.9102 104.812 31.7656L103.916 33.8047C103.693 34.3086 103.5 34.666 103.336 34.877C103.172 35.0762 102.943 35.1758 102.65 35.1758C102.357 35.1758 102.07 35.1289 101.789 35.0352C101.52 34.9414 101.285 34.8184 101.086 34.666C100.629 34.3262 100.4 33.9688 100.4 33.5938C100.4 33.207 100.523 32.6855 100.77 32.0293C101.027 31.3613 101.344 30.6172 101.719 29.7969L104.18 24.5938C105.059 22.6602 105.498 21.4355 105.498 20.9199C105.498 20.3926 105.258 20.1289 104.777 20.1289ZM106.518 25.0859C106.529 25.0859 106.535 25.0801 106.535 25.0684L106.553 25.0332C106.529 25.0566 106.518 25.0742 106.518 25.0859ZM130.371 12.6934C130.113 12.9629 129.82 13.1855 129.492 13.3613C129.164 13.5254 128.818 13.6309 128.455 13.6777C128.092 13.7129 127.746 13.6543 127.418 13.502C127.102 13.3496 126.826 13.1328 126.592 12.8516C126.088 12.2656 125.836 11.6738 125.836 11.0762C125.836 10.4785 125.93 10.0332 126.117 9.74023C126.316 9.43555 126.562 9.18945 126.855 9.00195C127.418 8.63867 127.945 8.45703 128.438 8.45703C128.941 8.45703 129.328 8.49219 129.598 8.5625C129.879 8.63281 130.137 8.75 130.371 8.91406C130.945 9.30078 131.232 9.77539 131.232 10.3379C131.232 10.8887 131.15 11.3516 130.986 11.7266C130.834 12.0898 130.629 12.4121 130.371 12.6934ZM126.768 31.7129C127.072 31.7129 127.225 31.9121 127.225 32.3105C127.225 32.8379 126.984 33.3828 126.504 33.9453C125.801 34.7656 124.857 35.1758 123.674 35.1758C122.314 35.1758 121.383 34.625 120.879 33.5234C120.691 33.1367 120.598 32.668 120.598 32.1172C120.598 31.5664 120.691 30.957 120.879 30.2891C121.078 29.6094 121.318 28.9004 121.6 28.1621C121.893 27.4121 122.209 26.6562 122.549 25.8945L123.48 23.6797C124.16 22.0273 124.5 20.9375 124.5 20.4102C124.5 19.8828 124.441 19.5371 124.324 19.373C124.219 19.1973 124.102 19.0625 123.973 18.9688L123.621 18.7227C123.504 18.6406 123.445 18.5 123.445 18.3008C123.445 18.0898 123.521 17.8906 123.674 17.7031C123.838 17.5156 124.049 17.3516 124.307 17.2109C124.834 16.9414 125.449 16.8066 126.152 16.8066C127.875 16.8066 128.736 17.2578 128.736 18.1602C128.736 19.2148 128.461 20.4219 127.91 21.7812C127.359 23.1289 126.891 24.2188 126.504 25.0508L125.449 27.4766C124.676 29.2578 124.289 30.541 124.289 31.3262C124.289 31.8418 124.547 32.0996 125.062 32.0996C125.566 32.0996 125.947 32.0352 126.205 31.9062C126.463 31.7773 126.65 31.7129 126.768 31.7129ZM143.854 20.1289C143.49 20.1289 142.975 20.4805 142.307 21.1836C141.639 21.875 141.059 22.5078 140.566 23.082L139.072 24.875L136.189 28.5488C135.51 29.8379 134.977 30.9102 134.59 31.7656L133.641 33.8047C133.395 34.3086 133.178 34.666 132.99 34.877C132.814 35.0762 132.568 35.1758 132.252 35.1758C131.947 35.1758 131.648 35.1172 131.355 35C131.074 34.8945 130.828 34.7539 130.617 34.5781C130.172 34.2031 129.949 33.793 129.949 33.3477C129.949 33.1719 130.078 32.8262 130.336 32.3105L131.004 30.8867C131.215 30.4648 131.461 29.9258 131.742 29.2695L132.727 26.8613C134.109 23.4043 134.801 21.1719 134.801 20.1641C134.801 19.625 134.625 19.2266 134.273 18.9688L133.922 18.7227C133.805 18.6406 133.746 18.5 133.746 18.3008C133.746 18.0898 133.822 17.8906 133.975 17.7031C134.139 17.5156 134.35 17.3516 134.607 17.2109C135.135 16.9414 135.662 16.8066 136.189 16.8066C136.729 16.8066 137.145 16.8652 137.438 16.9824C137.73 17.0996 137.977 17.2578 138.176 17.457C138.609 17.8672 138.826 18.2949 138.826 18.7402C138.826 19.1855 138.768 19.6367 138.65 20.0938C138.545 20.5391 138.404 20.9961 138.229 21.4648C138.064 21.9219 137.889 22.373 137.701 22.8184C137.514 23.2637 137.344 23.6504 137.191 23.9785L136.84 24.7344C136.746 24.9219 136.723 24.9805 136.77 24.9102C138.07 23.1055 138.926 21.9453 139.336 21.4297L140.566 19.9531C141.469 18.8984 142.178 18.2012 142.693 17.8613C143.736 17.1582 144.557 16.8066 145.154 16.8066C145.752 16.8066 146.256 16.8828 146.666 17.0352C147.076 17.1875 147.434 17.4043 147.738 17.6855C148.383 18.2832 148.705 19.0449 148.705 19.9707C148.705 20.8965 148.494 21.8633 148.072 22.8711C147.65 23.8789 147.281 24.6992 146.965 25.332C146.66 25.9531 146.367 26.5859 146.086 27.2305C145.207 29.1875 144.768 30.6113 144.768 31.502C144.768 31.9004 145.084 32.0996 145.717 32.0996C146.209 32.0996 146.654 31.9941 147.053 31.7832C147.463 31.5723 147.727 31.4668 147.844 31.4668C148.09 31.4668 148.213 31.5898 148.213 31.8359C148.213 32.8789 147.68 33.752 146.613 34.4551C145.898 34.9355 145.242 35.1758 144.645 35.1758C144.047 35.1758 143.549 35.1113 143.15 34.9824C142.764 34.8535 142.418 34.6484 142.113 34.3672C141.422 33.7461 141.076 32.8789 141.076 31.7656C141.076 30.4062 141.504 28.707 142.359 26.668C142.98 25.2734 143.42 24.3184 143.678 23.8027L144.275 22.5547C144.639 21.8047 144.82 21.2129 144.82 20.7793C144.82 20.3457 144.498 20.1289 143.854 20.1289Z" fill="#3D4852"/>
<path d="M29.4 10.6313C29.7937 10.5 30.3187 10.5 30.8438 10.5C34.7812 10.5 38.0625 13.7812 38.0625 17.7188C38.0625 21.6562 34.7812 24.9375 30.8438 24.9375L31.5 36.75H10.5L11.1562 24.9375C7.21875 24.9375 3.9375 21.6562 3.9375 17.7188C3.9375 13.7812 7.21875 10.5 11.1562 10.5C11.6813 10.5 12.2063 10.5 12.6 10.6313" stroke="#3D4852" stroke-width="2" stroke-miterlimit="10" stroke-linecap="round" stroke-linejoin="round"/>
<path d="M30.1875 14.4375C30.1875 9.31875 26.1188 5.25 21 5.25C15.8812 5.25 11.8125 9.31875 11.8125 14.4375" stroke="#3D4852" stroke-width="2" stroke-miterlimit="10" stroke-linecap="round" stroke-linejoin="round"/>
<path d="M21 27.5625V31.5" stroke="#3D4852" stroke-width="2" stroke-miterlimit="10" stroke-linecap="round" stroke-linejoin="round"/>
<path d="M16.4062 27.5625L15.75 31.1063" stroke="#3D4852" stroke-width="2" stroke-miterlimit="10" stroke-linecap="round" stroke-linejoin="round"/>
<path d="M25.5938 27.5625L26.25 31.1063" stroke="#3D4852" stroke-width="2" stroke-miterlimit="10" stroke-linecap="round" stroke-linejoin="round"/>
</svg>
